<?xml version="1.0" encoding="iso-8859-1"?>
<!-- Generator: Adobe Illustrator 18.1.1, SVG Export Plug-In . SVG Version: 6.00 Build 0)  -->
<svg version="1.1" id="&#x30EC;&#x30A4;&#x30E4;&#x30FC;_1"
	 xmlns="http://www.w3.org/2000/svg" xmlns:xlink="http://www.w3.org/1999/xlink" x="0px" y="0px" viewBox="0 0 200 200"
	 style="enable-background:new 0 0 200 200;" xml:space="preserve">
<path style="fill:#FFC2C5;stroke:#344A4E;stroke-miterlimit:10;" d="M142.356,154.673c5.857,0.306,11.799-2.158,15.721-6.518
	c3.922-4.361,5.744-10.53,4.821-16.322c-0.296-1.855-0.854-3.657-1.411-5.452c-2.109-6.802-4.219-13.604-6.328-20.405
	c-1.391-4.485-2.792-8.997-4.93-13.178c-2.489-4.868-5.963-9.23-10.152-12.744c-3.966-3.328-8.519-5.87-13.041-8.391
	c-3.613-2.014-7.646-4.478-11.258-6.492c-1.899-4.581-4.332-8.941-7.235-12.962c-3.624-5.02-7.953-9.483-12.292-13.898
	c-3.134-3.189-6.283-6.364-9.445-9.525c-3.831-3.829-6.655-8.177-11.817-9.817c-1.442,0.562-2.884,1.125-4.326,1.687
	c-0.227,2.251-0.455,4.503-0.682,6.754c-0.062,0.617-0.123,1.253,0.053,1.848c0.235,0.795,0.856,1.406,1.454,1.98
	c1.318,1.265,2.636,2.53,3.954,3.796c0.406,0.39,0.838,0.795,1.384,0.935c0.487,0.125,1.005,0.023,1.501,0.101
	c2.33,0.367,2.419,3.889,4.284,5.332c4.594,3.555,12.697,18.572,4.641,21.935c-5.88,2.455-12.006,4.348-17.676,7.256
	s-10.983,7-13.907,12.662c-1.969,3.813-2.746,8.111-3.5,12.336c-1.681,9.424-3.367,18.905-3.39,28.478
	c-0.007,2.931,0.243,6.122,2.207,8.297c19.39,21.474,53.414,23.607,82.346,23.612C135.825,155.979,139.961,155.362,142.356,154.673z
	"/>
<g>
	<path style="fill:#344A4E;" d="M85.646,104.794c0,0,0.377-0.078,1.038-0.191c0.33-0.062,0.734-0.11,1.203-0.158
		c0.469-0.059,1-0.111,1.579-0.118c0.58-0.034,1.208-0.028,1.873-0.002c0.666,0.014,1.365,0.08,2.088,0.154
		c0.719,0.101,1.467,0.181,2.213,0.344c0.752,0.133,1.501,0.331,2.254,0.509c0.742,0.219,1.488,0.429,2.206,0.682
		c0.728,0.226,1.415,0.526,2.091,0.784c1.333,0.564,2.554,1.14,3.563,1.705c1.019,0.542,1.826,1.07,2.394,1.427
		c0.563,0.367,0.877,0.589,0.877,0.589s-0.358-0.144-0.969-0.418c-0.608-0.281-1.493-0.644-2.549-1.08
		c-0.53-0.212-1.103-0.441-1.71-0.684c-0.604-0.248-1.259-0.46-1.921-0.717c-1.344-0.462-2.78-0.935-4.24-1.322
		c-0.732-0.184-1.46-0.389-2.189-0.529c-0.725-0.163-1.444-0.294-2.141-0.419c-0.7-0.095-1.376-0.221-2.022-0.282
		c-0.646-0.067-1.258-0.14-1.826-0.168c-1.136-0.083-2.081-0.118-2.756-0.102C86.031,104.803,85.646,104.794,85.646,104.794z"/>
</g>
<g>
	<path style="fill:#344A4E;" d="M132.747,110.181c0,0,0.831-0.86,2.18-2.041c1.354-1.167,3.276-2.642,5.477-3.691
		c1.096-0.509,2.26-0.933,3.374-1.174c1.116-0.252,2.189-0.343,3.1-0.319c0.914,0.018,1.661,0.174,2.172,0.295
		c0.511,0.126,0.79,0.236,0.79,0.236s-0.297-0.016-0.818-0.043c-0.516-0.034-1.254-0.005-2.121,0.086
		c-0.867,0.103-1.864,0.293-2.904,0.598c-1.043,0.313-2.115,0.715-3.165,1.224c-2.099,0.991-4.067,2.288-5.564,3.246
		c-0.753,0.479-1.38,0.878-1.819,1.157C133.007,110.033,132.747,110.181,132.747,110.181z"/>
</g>
<path style="fill:#536CC5;stroke:#344A4E;stroke-miterlimit:10;" d="M138.665,136c-1.67,2.812-3.637,5.447-5.858,7.847
	c-0.64,0.692-1.322,1.379-2.18,1.77c-1.049,0.478-2.246,0.464-3.398,0.441c-2.331-0.047-4.818-0.142-6.722-1.487
	c-0.803-0.568-1.449-1.325-2.12-2.043c-2.738-2.932-6.003-5.313-9.246-7.674c2.254,0.135,3.757,2.251,5.902,2.956
	c1.781,0.585,3.672,0.738,5.543,0.855c5.392,0.337,10.8,0.416,16.199,0.236c0.561-0.019,1.152-0.049,1.626-0.348
	S138.963,136.476,138.665,136z"/>
<path style="fill:#344A4E;" d="M93.653,78.463c0.322-1.021,1.818-1.305,2.656-0.64s1.012,1.93,0.643,2.935
	c-0.369,1.005-1.173,1.787-2.026,2.435c-1.307,0.992-3.223,1.729-4.506,0.706c-0.006-0.769-0.012-1.537-0.018-2.306
	c1.079,0.318,2.23,0.637,3.309,0.32c1.079-0.317,1.966-1.546,1.496-2.567c-0.914,0.154-1.875,0.022-2.714-0.371
	c0.833-0.33,1.667-0.66,2.5-0.99"/>
<path style="fill:#344A4E;" d="M82.003,75.335c1.121-0.56,2.241-1.121,3.362-1.681c0.327-0.163,0.677-0.331,1.04-0.288
	c0.706,0.085,1.081,0.971,0.88,1.653s-0.785,1.174-1.368,1.581c-1.182,0.825-2.486,1.476-3.856,1.925
	c-0.746,0.245-1.854,0.23-1.994-0.542c0.728-0.108,1.118-0.884,1.484-1.523s1.059-1.303,1.737-1.017"/>
<path style="fill:#344A4E;" d="M73.669,72.001c-0.513,1.299-1.47,2.419-2.674,3.127c1.313,0.331,2.716,0.659,3.995,0.215
	c1.279-0.444,2.261-1.999,1.603-3.182c-1.233,0.618-2.385,1.398-3.417,2.313c0.049-0.491,0.097-0.982,0.146-1.472"/>
<path style="fill:#344A4E;" d="M130.159,76.528c-0.855-0.713-2.406-0.115-2.561,0.987c-0.138,0.981,0.637,1.829,1.352,2.514
	c0.877,0.841,1.754,1.683,2.631,2.524c0.308,0.295,0.659,0.609,1.085,0.616c0.974,0.016,1.163-1.529,0.495-2.237
	s-1.705-0.922-2.5-1.483s-1.244-1.902-0.431-2.438"/>
<path style="fill:none;stroke:#344A4E;stroke-miterlimit:10;" d="M60.012,99.012c-0.469,1.735-1.854,3.195-3.562,3.755
	c-0.725,0.238-1.563,0.362-2.034,0.962c-0.356,0.453-0.406,1.066-0.432,1.641c-0.181,4.009,0.154,8.04,0.994,11.964
	c0.149,0.696,0.334,1.426,0.835,1.932c0.399,0.402,0.948,0.61,1.479,0.806c2.237,0.827,4.475,1.653,6.712,2.48"/>
<path style="fill:#344A4E;" d="M59.117,115.903c-0.306,0.743-1.481,0.699-2.018,0.102c-0.538-0.598-0.613-1.467-0.661-2.27
	c-0.108-1.804-0.217-3.608-0.325-5.412c-0.042-0.703,0.056-1.616,0.737-1.798c0.413-0.11,0.835,0.133,1.164,0.406
	c2.188,1.814,2.542,4.979,2.734,7.815c0.049,0.716,0.067,1.522-0.426,2.043c-0.492,0.522-1.645,0.279-1.583-0.435"/>
</svg>
